<svg id="Capa_1" enable-background="new 0 0 510.5 510.5" height="512" viewBox="0 0 510.5 510.5" width="512" xmlns="http://www.w3.org/2000/svg"><g><g><path d="m503 96.678v225.68l-24.598 7.498h-427.404l-43.498-7.498v-225.68c0-16.56 13.43-30 30-30h435.5c16.57 0 30 13.44 30 30z" fill="#8ac9fe"/><path d="m67.5 66.678c-16.57 0-30 13.44-30 30v225.68l-6.757 5.782h-17.021l-6.222-5.782v-225.68c0-16.56 13.43-30 30-30z" fill="#60b7ff"/><path d="m207.003 337.354h96.5v134h-96.5z" fill="#e8edf2"/><path d="m207 337.357h30v134h-30z" fill="#d9e7ec"/><path d="m367.753 492.354h-225c-9.941 0-18-8.059-18-18v-12c0-9.941 8.059-18 18-18h225c9.941 0 18 8.059 18 18v12c0 9.942-8.058 18-18 18z" fill="#f5f8f9"/><path d="m503 322.358v35c0 16.57-13.43 30-30 30h-435.5c-16.57 0-30-13.43-30-30v-35z" fill="#f5f8f9"/><path d="m172.75 492.358h-30c-9.94 0-18-8.06-18-18v-12c0-9.94 8.06-18 18-18h30c-9.94 0-18 8.06-18 18v12c0 9.94 8.06 18 18 18z" fill="#e8edf2"/><path d="m67.5 387.358h-30c-16.57 0-30-13.43-30-30v-35h30v35c0 16.569 13.43 30 30 30z" fill="#e8edf2"/><path d="m417.75 254.143v-216c0-11.05-8.95-20-20-20h-278c-11.05 0-20 8.95-20 20v216z" fill="#f5f8f9"/><path d="m149.75 18.143c-11.05 0-20 8.95-20 20v216h-30v-216c0-11.05 8.95-20 20-20z" fill="#e8edf2"/></g><g><path d="m473 58.58h-47.75v-19.83c0-15.163-12.337-27.5-27.5-27.5h-17.42c-4.143 0-7.5 3.357-7.5 7.5s3.357 7.5 7.5 7.5h17.42c6.893 0 12.5 5.607 12.5 12.5v208.5h-303v-208.5c0-6.893 5.607-12.5 12.5-12.5h225.58c4.143 0 7.5-3.357 7.5-7.5s-3.357-7.5-7.5-7.5h-225.58c-15.163 0-27.5 12.337-27.5 27.5v19.83h-54.75c-20.678 0-37.5 16.822-37.5 37.5v155.25c0 4.143 3.357 7.5 7.5 7.5s7.5-3.357 7.5-7.5v-155.25c0-12.406 10.094-22.5 22.5-22.5h54.75v173.67h-13.5c-4.143 0-7.5 3.357-7.5 7.5s3.357 7.5 7.5 7.5h360c4.143 0 7.5-3.357 7.5-7.5s-3.357-7.5-7.5-7.5h-13.5v-173.67h47.75c12.406 0 22.5 10.094 22.5 22.5v218.17h-480.5v-27.92c0-4.143-3.357-7.5-7.5-7.5s-7.5 3.357-7.5 7.5v70.42c0 20.678 16.822 37.5 37.5 37.5h162v42h-56.75c-14.061 0-25.5 11.439-25.5 25.5v12c0 14.061 11.439 25.5 25.5 25.5h225c14.061 0 25.5-11.439 25.5-25.5v-12c0-14.061-11.439-25.5-25.5-25.5h-56.75v-42h162c20.678 0 37.5-16.822 37.5-37.5v-260.67c0-20.678-16.822-37.5-37.5-37.5zm-94.75 403.17v12c0 5.79-4.71 10.5-10.5 10.5h-225c-5.79 0-10.5-4.71-10.5-10.5v-12c0-5.79 4.71-10.5 10.5-10.5h225c5.79 0 10.5 4.71 10.5 10.5zm-82.25-25.5h-81.5v-42h81.5zm177-57h-435.5c-12.406 0-22.5-10.094-22.5-22.5v-27.5h480.5v27.5c0 12.406-10.094 22.5-22.5 22.5z"/><path d="m192.256 199.898h.065c4.112 0 7.463-3.315 7.499-7.436.03-3.516.091-10.739.155-19.578h4.252c4.143 0 7.5-3.357 7.5-7.5s-3.357-7.5-7.5-7.5h-4.151c.139-22.657.225-47.968-.053-51.293-.512-6.148-4.124-11.138-9.201-12.71-2.4-.742-8.608-1.698-14.431 5.442-5.187 6.363-31.07 53.128-36.207 62.438-1.281 2.323-1.24 5.151.109 7.437 1.349 2.284 3.805 3.687 6.458 3.687h38.222c-.05 6.894-.102 13.535-.153 19.449-.035 4.142 3.293 7.528 7.436 7.564zm-32.771-42.013c10.237-18.381 20.579-36.517 25.695-44.794.066 8.68.001 26.444-.108 44.794z"/><path d="m224.782 127.834v42.328c0 18.729 15.238 33.967 33.968 33.967s33.968-15.237 33.968-33.967v-42.328c0-18.729-15.238-33.968-33.968-33.968s-33.968 15.238-33.968 33.968zm52.936 0v42.328c0 10.458-8.509 18.967-18.968 18.967s-18.968-8.509-18.968-18.967v-42.328c0-10.459 8.509-18.968 18.968-18.968s18.968 8.509 18.968 18.968z"/><path d="m342.911 99.325c-5.186 6.362-31.069 53.127-36.206 62.437-1.281 2.323-1.24 5.151.109 7.437 1.349 2.284 3.805 3.687 6.458 3.687h38.221c-.049 6.894-.102 13.536-.152 19.449-.035 4.142 3.293 7.528 7.436 7.564h.065c4.112 0 7.463-3.315 7.499-7.436.03-3.516.091-10.739.154-19.578h4.253c4.143 0 7.5-3.357 7.5-7.5s-3.357-7.5-7.5-7.5h-4.152c.139-22.657.225-47.968-.053-51.293-.512-6.148-4.124-11.138-9.201-12.71-2.401-.742-8.609-1.7-14.431 5.443zm8.681 58.56h-25.586c10.237-18.381 20.578-36.517 25.694-44.794.067 8.68.002 26.444-.108 44.794z"/></g></g></svg>